<?xml version="1.0" encoding="utf-8"?>
<!-- Generator: Adobe Illustrator 20.0.0, SVG Export Plug-In . SVG Version: 6.00 Build 0)  -->
<svg version="1.1" id="Capa_1" xmlns="http://www.w3.org/2000/svg" xmlns:xlink="http://www.w3.org/1999/xlink" x="0px" y="0px"
	 viewBox="0 0 480 480" style="enable-background:new 0 0 480 480;" xml:space="preserve">
<style type="text/css">
	.st0{fill:#D0EBF4;}
	.st1{fill:#6D6E71;}
</style>
<path class="st0" d="M240,472c128.1,0,232-103.9,232-232S368.1,8,240,8S8,111.9,8,240S111.9,472,240,472z"/>
<g>
	<path class="st1" d="M240,480C107.5,480,0,372.5,0,240S107.5,0,240,0s240,107.5,240,240C479.9,372.5,372.5,479.9,240,480z M240,16
		C116.3,16,16,116.3,16,240s100.3,224,224,224s224-100.3,224-224C463.9,116.3,363.7,16.1,240,16z"/>
</g>
<g>
	<path class="st1" d="M171.7,342c-2.2-3.8-0.9-8.7,2.9-10.9l166.3-96c3.8-2.2,8.7-0.9,10.9,2.9c2.2,3.8,0.9,8.7-2.9,10.9l-166.3,96
		C178.8,347.1,173.9,345.8,171.7,342z"/>
	<path class="st1" d="M351.9,246c-2.2,3.8-7.1,5.1-10.9,2.9l-166.3-96c-3.8-2.2-5.1-7.1-2.9-10.9c2.2-3.8,7.1-5.1,10.9-2.9l166.3,96
		C352.8,237.3,354.1,242.2,351.9,246z"/>
	<path class="st1" d="M178.7,346c-4.4,0-8-3.6-8-8V146c0-4.4,3.6-8,8-8s8,3.6,8,8v192C186.7,342.4,183.1,346,178.7,346z"/>
</g>
</svg>
