<?xml version="1.0" encoding="utf-8"?>
<!-- Generator: Adobe Illustrator 20.0.0, SVG Export Plug-In . SVG Version: 6.00 Build 0)  -->
<svg version="1.1" id="Capa_1" xmlns="http://www.w3.org/2000/svg" xmlns:xlink="http://www.w3.org/1999/xlink" x="0px" y="0px"
	 viewBox="0 0 480 480" style="enable-background:new 0 0 480 480;" xml:space="preserve">
<style type="text/css">
	.st0{fill:#D1DBF2;stroke:#647B8E;stroke-width:7;stroke-miterlimit:10;}
	.st1{display:none;}
	.st2{display:inline;fill:#6D6E71;}
	.st3{fill:#647B8E;}
</style>
<path class="st0" d="M118.7,104.3v274c0,13.7,14.8,22.2,26.6,15.5l238.2-135.9c11.9-6.8,12-24,0.1-30.9L145.4,88.9
	C133.5,82,118.7,90.6,118.7,104.3z"/>
<g class="st1">
	<path class="st2" d="M171.7,342c-2.2-3.8-0.9-8.7,2.9-10.9l166.3-96c3.8-2.2,8.7-0.9,10.9,2.9c2.2,3.8,0.9,8.7-2.9,10.9l-166.3,96
		C178.8,347.1,173.9,345.8,171.7,342z"/>
	<path class="st2" d="M351.9,246c-2.2,3.8-7.1,5.1-10.9,2.9l-166.3-96c-3.8-2.2-5.1-7.1-2.9-10.9c2.2-3.8,7.1-5.1,10.9-2.9l166.3,96
		C352.8,237.3,354.1,242.2,351.9,246z"/>
	<path class="st2" d="M173.1,344.1c-1.6-1.1-2.5-2.9-2.5-4.9V144.8c0-1.9,0.9-3.7,2.5-4.9c6.5-4.6,13.5-0.1,13.5,6.1v192
		C186.7,344.2,179.6,348.7,173.1,344.1z"/>
</g>
<circle class="st3" cx="374.5" cy="242" r="18"/>
</svg>
